<?xml version="1.0" encoding="UTF-8" standalone="no"?>
<!-- Created with Inkscape (http://www.inkscape.org/) -->

<svg
   xmlns:dc="http://purl.org/dc/elements/1.1/"
   xmlns:cc="http://creativecommons.org/ns#"
   xmlns:rdf="http://www.w3.org/1999/02/22-rdf-syntax-ns#"
   xmlns:svg="http://www.w3.org/2000/svg"
   xmlns="http://www.w3.org/2000/svg"
   xmlns:sodipodi="http://sodipodi.sourceforge.net/DTD/sodipodi-0.dtd"
   xmlns:inkscape="http://www.inkscape.org/namespaces/inkscape"
   width="160"
   height="250"
   id="AI_CT"
   version="1.1"
   inkscape:version="0.91 r13725"
   sodipodi:docname="AI_CT.svg">
  <defs
     id="defs4" />
  <sodipodi:namedview
     id="base"
     pagecolor="#ffffff"
     bordercolor="#666666"
     borderopacity="1.0"
     inkscape:pageopacity="0.0"
     inkscape:pageshadow="2"
     inkscape:zoom="2.8"
     inkscape:cx="-34.651392"
     inkscape:cy="185.50037"
     inkscape:document-units="px"
     inkscape:current-layer="AI_CT"
     showgrid="false"
     inkscape:window-width="1600"
     inkscape:window-height="819"
     inkscape:window-x="0"
     inkscape:window-y="26"
     inkscape:window-maximized="1"
     showguides="false"
     fit-margin-top="0"
     fit-margin-left="0"
     fit-margin-right="0"
     fit-margin-bottom="0"
     units="px" />
  <metadata
     id="metadata7">
    <rdf:RDF>
      <cc:Work
         rdf:about="">
        <dc:format>image/svg+xml</dc:format>
        <dc:type
           rdf:resource="http://purl.org/dc/dcmitype/StillImage" />
        <dc:title />
      </cc:Work>
    </rdf:RDF>
  </metadata>
  <path
     id="path4454"
     style="opacity:1;fill:#e8eff9;fill-opacity:1;stroke:#000000;stroke-width:1;stroke-linecap:round;stroke-linejoin:round;stroke-miterlimit:4;stroke-dasharray:none;stroke-opacity:1"
     d="m 124,246 9,0 0,3.5 -13,0 -10,-17.5 6,0 z m -88,0 -9,0 0,3.5 13,0 10,-17.5 -6,0 z m 25,-57 0,-4 c 0,-1.8 1.4,-3 3,-3 l 32,0 c 1.6,0 3,1.2 3,3 l 0,4 m -85,0 132,0 0,43 -132,0 z m 6,4 120,0 0,35 -120,0 z"
     inkscape:connector-curvature="0"
     sodipodi:nodetypes="cccccccccccccccssssccccccccccc" />
  <path
     id="path4477"
     style="opacity:1;fill:#e8eff9;fill-opacity:1;stroke:#000000;stroke-width:1;stroke-linecap:round;stroke-linejoin:round;stroke-miterlimit:4;stroke-dasharray:none;stroke-opacity:1"
     d="m 6,35 -5.5,0 0,6 5.5,0 z m 8,-5 -8,0 0,16 8,0 z m 140,5 5.5,0 0,6 -5.5,0 z m -8,-5 8,0 0,16 -8,0 z m 0,-24.5 c 0,3.7 -35,5 -66,5 -31,0 -66,-1.3 -66,-5 0,-3.7 35,-5 66,-5 31,0 66,1.3 66,5 z M 14,6 14,79 c 18.1,4.8 45.9,4 61,4 14.4,-0.04 55.8,1.1 71,-4 l 0,-73"
     inkscape:connector-curvature="0"
     sodipodi:nodetypes="cccccccccccccccccccccscscccccc" />
  <path
     id="path4502"
     style="fill:#e8eff9;fill-opacity:1;fill-rule:evenodd;stroke:#000000;stroke-width:1px;stroke-linecap:butt;stroke-linejoin:miter;stroke-opacity:1"
     d="m 67,177 0,5 26,0 0,-5 m 0,-87 0,-7 -26,0 0,7 m 36.94707,6.80785 c 1.91132,0.0154 1.0425,-1.60412 -0.25615,-2.11529 -3.29064,-1.89897 -6.882083,-3.01439 -10.378023,-4.34687 l 0,-4e-5 c -8.87527,0.0146 -17.75053,0.0069 -26.6258,0 l 0,4e-5 c -3.49594,1.33248 -7.08736,2.4479 -10.37802,4.34687 -1.29864,0.51117 -2.16747,2.13066 -0.25615,2.11529 16.489201,-0.0016 32.685155,-2.3e-5 47.894143,0 z m -4.084483,4.25305 c 1.585333,0.0101 0.864683,-1.06352 -0.21247,-1.40241 -2.72937,-1.259 -5.70825,-1.99851 -8.6079,-2.88192 l 0,-3e-5 c -7.361479,0.01012 -14.722951,0.0048 -22.08443,0 l 0,3e-5 c -2.89965,0.88341 -5.87853,1.62292 -8.6079,2.88192 -1.07716,0.33889 -1.7978,1.41259 -0.21246,1.40241 13.120354,-0.001 27.912562,-1e-5 39.72516,0 z m 4.084483,6.50431 c 1.91132,0.0154 1.0425,-1.60413 -0.25615,-2.11529 -3.29064,-1.89898 -6.882083,-3.01439 -10.378023,-4.34688 l 0,-5e-5 c -8.87527,0.0146 -17.75053,0.007 -26.6258,0 l 0,5e-5 c -3.49594,1.33249 -7.08736,2.4479 -10.37802,4.34688 -1.29864,0.51116 -2.16747,2.13065 -0.25615,2.11529 16.489201,-0.002 32.685155,-2e-5 47.894143,0 z m -4.084483,4.25304 c 1.585333,0.0101 0.864683,-1.06351 -0.21247,-1.40241 -2.72937,-1.259 -5.70825,-1.9985 -8.6079,-2.88192 l 0,-3e-5 c -7.361479,0.0101 -14.722951,0.005 -22.08443,0 l 0,3e-5 c -2.89965,0.88342 -5.87853,1.62292 -8.6079,2.88192 -1.07716,0.3389 -1.7978,1.41259 -0.21246,1.40241 13.676748,-0.001 27.110269,-2e-5 39.72516,0 z m 4.084483,6.57155 c 1.91132,0.0154 1.0425,-1.60413 -0.25615,-2.1153 -3.29064,-1.89897 -6.882083,-3.01439 -10.378023,-4.34688 l 0,-3e-5 c -8.87527,0.0146 -17.75053,0.007 -26.6258,0 l 0,3e-5 c -3.49594,1.33249 -7.08736,2.44791 -10.37802,4.34688 -1.29864,0.51117 -2.16747,2.13065 -0.25615,2.1153 16.489201,-0.002 32.685155,-2e-5 47.894143,0 z m -4.084483,4.25305 c 1.585333,0.0101 0.864683,-1.06353 -0.21247,-1.40242 -2.72937,-1.259 -5.70825,-1.99851 -8.6079,-2.88192 l 0,-4e-5 c -7.361479,0.0101 -14.722951,0.005 -22.08443,0 l 0,4e-5 c -2.89965,0.88341 -5.87853,1.62292 -8.6079,2.88192 -1.07716,0.33889 -1.7978,1.41259 -0.21246,1.40242 13.120354,-10e-4 27.912562,-2e-5 39.72516,0 z m 4.084483,6.57153 c 1.91132,0.0154 1.0425,-1.60413 -0.25615,-2.11529 -3.29064,-1.89897 -6.882083,-3.01439 -10.378023,-4.34687 l 0,-5e-5 c -8.87527,0.0146 -17.75053,0.007 -26.6258,0 l 0,5e-5 c -3.49594,1.33248 -7.08736,2.4479 -10.37802,4.34687 -1.29864,0.51116 -2.16747,2.13066 -0.25615,2.11529 16.489201,-0.002 32.685155,-2e-5 47.894143,0 z m -4.084483,4.25305 c 1.585333,0.0101 0.864683,-1.06351 -0.21247,-1.40242 -2.72937,-1.259 -5.70825,-1.99849 -8.6079,-2.88192 l 0,-2e-5 c -7.361479,0.0101 -14.722951,0.005 -22.08443,0 l 0,2e-5 c -2.89965,0.88343 -5.87853,1.62292 -8.6079,2.88192 -1.07716,0.33891 -1.7978,1.41259 -0.21246,1.40242 13.120354,-0.001 27.912562,-2e-5 39.72516,0 z m 4.084483,6.57154 c 1.91132,0.0154 1.0425,-1.60413 -0.25615,-2.11529 -3.29064,-1.89898 -6.882083,-3.01439 -10.378023,-4.34688 l 0,-4e-5 c -8.87527,0.0146 -17.75053,0.007 -26.6258,0 l 0,4e-5 c -3.49594,1.33249 -7.08736,2.4479 -10.37802,4.34688 -1.29864,0.51116 -2.16747,2.13065 -0.25615,2.11529 16.489201,-0.002 32.685155,-2e-5 47.894143,0 z m -4.084483,4.25304 c 1.585333,0.0101 0.864683,-1.06351 -0.21247,-1.40241 -2.72937,-1.259 -5.70825,-1.9985 -8.6079,-2.88192 l 0,-3e-5 c -7.361479,0.0101 -14.722951,0.005 -22.08443,0 l 0,3e-5 c -2.89965,0.88342 -5.87853,1.62292 -8.6079,2.88192 -1.07716,0.3389 -1.7978,1.41259 -0.21246,1.40241 13.676748,-0.001 27.110269,-2e-5 39.72516,0 z m 4.084483,6.50431 c 1.91132,0.0154 1.0425,-1.60413 -0.25615,-2.11529 -3.29064,-1.89897 -6.882083,-3.0144 -10.378023,-4.34687 l 0,-5e-5 c -8.87527,0.0146 -17.75053,0.007 -26.6258,0 l 0,5e-5 c -3.49594,1.33247 -7.08736,2.4479 -10.37802,4.34687 -1.29864,0.51116 -2.16747,2.13066 -0.25615,2.11529 16.489201,-0.002 32.685155,-2e-5 47.894143,0 z m -4.084483,4.25305 c 1.585333,0.0101 0.864683,-1.06352 -0.21247,-1.40242 -2.72937,-1.259 -5.70825,-1.99849 -8.6079,-2.88192 l 0,-2e-5 c -7.361479,0.0101 -14.722951,0.005 -22.08443,0 l 0,2e-5 c -2.89965,0.88343 -5.87853,1.62292 -8.6079,2.88192 -1.07716,0.3389 -1.7978,1.41259 -0.21246,1.40242 13.120354,-0.001 27.912562,-1e-5 39.72516,0 z m 4.084493,6.54734 c 1.91132,0.0154 1.04249,-1.60414 -0.25615,-2.11529 -3.29065,-1.89898 -6.882083,-3.0144 -10.378023,-4.34688 l 0,-5e-5 c -8.875273,0.0146 -17.750536,0.007 -26.62581,0 l 0,5e-5 c -3.49593,1.33248 -7.08736,2.4479 -10.37802,4.34688 -1.29864,0.51115 -2.16747,2.13065 -0.25615,2.11529 15.81839,-0.002 33.652425,-2e-5 47.894153,0 z m -4.084483,4.25304 c 1.585323,0.0101 0.864683,-1.06351 -0.21247,-1.40241 -2.72938,-1.259 -5.70826,-1.9985 -8.6079,-2.88193 l 0,-2e-5 c -7.361482,0.0101 -14.722958,0.005 -22.08444,0 l 0,2e-5 c -2.89964,0.88343 -5.87853,1.62293 -8.6079,2.88193 -1.07716,0.3389 -1.7978,1.41259 -0.21246,1.40241 13.676749,-0.001 27.110265,-2e-5 39.72517,0 z m 4.084483,6.57154 c 1.91132,0.0154 1.0425,-1.60412 -0.25615,-2.11529 -3.29065,-1.89897 -6.882093,-3.01439 -10.378023,-4.34688 l 0,-4e-5 c -8.875273,0.0146 -17.750536,0.007 -26.62581,0 l 0,4e-5 c -3.49594,1.33249 -7.08737,2.44791 -10.37802,4.34688 -1.29865,0.51117 -2.16747,2.13065 -0.25615,2.11529 16.489204,-0.002 32.685146,-2e-5 47.894153,0 z m -4.084483,4.25305 c 1.585323,0.0101 0.864683,-1.06352 -0.21247,-1.40242 -2.72938,-1.259 -5.70825,-1.9985 -8.6079,-2.88192 l 0,-3e-5 c -7.361482,0.0101 -14.722958,0.005 -22.08444,0 l 0,3e-5 c -2.89965,0.88342 -5.87853,1.62292 -8.6079,2.88192 -1.07716,0.3389 -1.7978,1.41259 -0.21246,1.40242 13.120354,-0.001 27.912558,-1e-5 39.72517,0 z"
     inkscape:connector-curvature="0"
     sodipodi:nodetypes="cccccccccccccccccccccccccccccccccccccccccccccccccccccccccccccccccccccccccccccccccccccccccccccccccccccccccccccccccccccccccccccccccccccccccccccccccccccccc" />
  <text
     x="8"
     y="130"
     style="font-weight:bold;font-size:16px;font-family:Arial"
     id="text18">IN</text>
  <text
     x="124"
     y="130"
     style="font-weight:bold;font-size:16px;font-family:Arial"
     id="text13">OUT</text>
</svg>
